<svg width="1440" height="900" viewBox="0 0 1440 900" fill="none" xmlns="http://www.w3.org/2000/svg">
  <rect width="1440" height="900" rx="34" fill="#121212"/>
  <rect x="36" y="34" width="1368" height="832" rx="28" fill="#1C1C1C" stroke="#2E2E2E" stroke-width="2"/>
  <rect x="36" y="34" width="1368" height="58" rx="28" fill="#232323"/>
  <rect x="36" y="64" width="1368" height="28" fill="#232323"/>
  <circle cx="78" cy="63" r="8" fill="#F15F5F"/>
  <circle cx="106" cy="63" r="8" fill="#F4BF4F"/>
  <circle cx="134" cy="63" r="8" fill="#61C554"/>
  <rect x="184" y="48" width="170" height="30" rx="15" fill="#2A2A2A"/>
  <text x="269" y="68" fill="#E7E7E7" font-family="SF Pro Display, Segoe UI, sans-serif" font-size="16" text-anchor="middle">信息流 / Graph View</text>
  <rect x="66" y="120" width="328" height="714" rx="22" fill="#181818" stroke="#2D2D2D" stroke-width="2"/>
  <text x="96" y="164" fill="#D9D9D9" font-family="SF Pro Display, Segoe UI, sans-serif" font-size="20" font-weight="700">Vault</text>
  <circle cx="86" cy="204" r="4" fill="#8D8D8D"/>
  <text x="100" y="210" fill="#AFAFAF" font-family="SF Pro Display, Segoe UI, sans-serif" font-size="18">attachments</text>
  <circle cx="86" cy="246" r="4" fill="#8D8D8D"/>
  <text x="100" y="252" fill="#AFAFAF" font-family="SF Pro Display, Segoe UI, sans-serif" font-size="18">Inbox</text>
  <circle cx="108" cy="286" r="4" fill="#AFAFAF"/>
  <text x="122" y="292" fill="#E8E8E8" font-family="SF Pro Display, Segoe UI, sans-serif" font-size="18" font-weight="700">内容摘要</text>
  <circle cx="130" cy="326" r="4" fill="#8D8D8D"/>
  <text x="144" y="332" fill="#B7B7B7" font-family="SF Pro Display, Segoe UI, sans-serif" font-size="17">2026-04-20</text>
  <circle cx="130" cy="362" r="4" fill="#8D8D8D"/>
  <text x="144" y="368" fill="#B7B7B7" font-family="SF Pro Display, Segoe UI, sans-serif" font-size="17">2026-04-21</text>
  <circle cx="130" cy="398" r="4" fill="#8D8D8D"/>
  <text x="144" y="404" fill="#B7B7B7" font-family="SF Pro Display, Segoe UI, sans-serif" font-size="17">2026-04-22</text>
  <circle cx="130" cy="440" r="4" fill="#8D8D8D"/>
  <text x="144" y="446" fill="#B7B7B7" font-family="SF Pro Display, Segoe UI, sans-serif" font-size="17">MOC</text>
  <circle cx="152" cy="476" r="4" fill="#8D8D8D"/>
  <text x="166" y="482" fill="#D1D1D1" font-family="SF Pro Display, Segoe UI, sans-serif" font-size="17">GitHub</text>
  <circle cx="174" cy="512" r="4" fill="#8D8D8D"/>
  <text x="188" y="518" fill="#D1D1D1" font-family="SF Pro Display, Segoe UI, sans-serif" font-size="17">AI Agent</text>
  <circle cx="174" cy="548" r="4" fill="#8D8D8D"/>
  <text x="188" y="554" fill="#D1D1D1" font-family="SF Pro Display, Segoe UI, sans-serif" font-size="17">Developer Tool</text>
  <circle cx="174" cy="584" r="4" fill="#8D8D8D"/>
  <text x="188" y="590" fill="#D1D1D1" font-family="SF Pro Display, Segoe UI, sans-serif" font-size="17">SaaS</text>
  <circle cx="130" cy="626" r="4" fill="#8D8D8D"/>
  <text x="144" y="632" fill="#B7B7B7" font-family="SF Pro Display, Segoe UI, sans-serif" font-size="17">_index</text>
  <rect x="86" y="706" width="260" height="96" rx="18" fill="#232323" stroke="#353535" stroke-width="2"/>
  <text x="110" y="742" fill="#EDEDED" font-family="SF Pro Display, Segoe UI, sans-serif" font-size="18" font-weight="700">AI + Obsidian</text>
  <text x="110" y="772" fill="#B8B8B8" font-family="SF Mono, Menlo, monospace" font-size="15">DeepWiki -> GitHub API -> LLM</text>
  <text x="110" y="796" fill="#B8B8B8" font-family="SF Mono, Menlo, monospace" font-size="15">Knowledge cards + MOC links</text>

  <rect x="426" y="120" width="938" height="714" rx="22" fill="#151515" stroke="#2D2D2D" stroke-width="2"/>
  <text x="895" y="164" fill="#E7E7E7" font-family="SF Pro Display, Segoe UI, sans-serif" font-size="22" font-weight="700" text-anchor="middle">关系图谱</text>
  <text x="895" y="194" fill="#AFAFAF" font-family="SF Pro Display, Segoe UI, sans-serif" font-size="16" text-anchor="middle">GitHub cards branch into category MOCs and stay linked to your daily inbox.</text>

  <line x1="875" y1="248" x2="1010" y2="344" stroke="#5A5A5A" stroke-width="2"/>
  <line x1="875" y1="248" x2="770" y2="348" stroke="#5A5A5A" stroke-width="2"/>
  <line x1="875" y1="248" x2="700" y2="474" stroke="#5A5A5A" stroke-width="2"/>
  <line x1="875" y1="248" x2="1094" y2="486" stroke="#5A5A5A" stroke-width="2"/>
  <line x1="875" y1="248" x2="882" y2="608" stroke="#5A5A5A" stroke-width="2"/>
  <line x1="875" y1="248" x2="1190" y2="582" stroke="#5A5A5A" stroke-width="2"/>
  <line x1="875" y1="248" x2="576" y2="580" stroke="#5A5A5A" stroke-width="2"/>
  <line x1="875" y1="248" x2="1018" y2="704" stroke="#484848" stroke-width="2"/>
  <line x1="1010" y1="344" x2="1094" y2="486" stroke="#464646" stroke-width="2"/>
  <line x1="770" y1="348" x2="700" y2="474" stroke="#464646" stroke-width="2"/>
  <line x1="700" y1="474" x2="576" y2="580" stroke="#464646" stroke-width="2"/>
  <line x1="1094" y1="486" x2="1190" y2="582" stroke="#464646" stroke-width="2"/>
  <line x1="882" y1="608" x2="1018" y2="704" stroke="#464646" stroke-width="2"/>
  <line x1="700" y1="474" x2="882" y2="608" stroke="#383838" stroke-width="2"/>
  <line x1="1094" y1="486" x2="882" y2="608" stroke="#383838" stroke-width="2"/>
  <line x1="576" y1="580" x2="882" y2="608" stroke="#383838" stroke-width="2"/>
  <line x1="1190" y1="582" x2="882" y2="608" stroke="#383838" stroke-width="2"/>

  <circle cx="875" cy="248" r="18" fill="#CFCFCF"/>
  <text x="875" y="230" fill="#EDEDED" font-family="SF Pro Display, Segoe UI, sans-serif" font-size="16" text-anchor="middle">Developer Tool</text>

  <circle cx="1010" cy="344" r="15" fill="#A7A7A7"/>
  <text x="1010" y="372" fill="#E6E6E6" font-family="SF Pro Display, Segoe UI, sans-serif" font-size="14" text-anchor="middle">GitHub 仓库</text>

  <circle cx="770" cy="348" r="10" fill="#B8B8B8"/>
  <text x="770" y="374" fill="#D9D9D9" font-family="SF Pro Display, Segoe UI, sans-serif" font-size="13" text-anchor="middle">AI Agent</text>

  <circle cx="700" cy="474" r="14" fill="#DA5B5B"/>
  <text x="700" y="504" fill="#ECECEC" font-family="SF Pro Display, Segoe UI, sans-serif" font-size="16" text-anchor="middle">NousResearch_hermes-agent</text>

  <circle cx="1094" cy="486" r="12" fill="#BBBBBB"/>
  <text x="1094" y="514" fill="#E6E6E6" font-family="SF Pro Display, Segoe UI, sans-serif" font-size="15" text-anchor="middle">Automation</text>

  <circle cx="882" cy="608" r="16" fill="#AFAFAF"/>
  <text x="882" y="638" fill="#E8E8E8" font-family="SF Pro Display, Segoe UI, sans-serif" font-size="16" text-anchor="middle">_index</text>

  <circle cx="576" cy="580" r="13" fill="#DD5D5D"/>
  <text x="576" y="610" fill="#ECECEC" font-family="SF Pro Display, Segoe UI, sans-serif" font-size="15" text-anchor="middle">OpenCode_保姆级配置与实战指南</text>

  <circle cx="1190" cy="582" r="13" fill="#BDBDBD"/>
  <text x="1190" y="610" fill="#E6E6E6" font-family="SF Pro Display, Segoe UI, sans-serif" font-size="15" text-anchor="middle">upstash_context7</text>

  <circle cx="1018" cy="704" r="13" fill="#D95B5B"/>
  <text x="1018" y="734" fill="#ECECEC" font-family="SF Pro Display, Segoe UI, sans-serif" font-size="15" text-anchor="middle">anomalyco_opencode</text>

  <rect x="1106" y="180" width="214" height="140" rx="18" fill="#202020" stroke="#343434" stroke-width="2"/>
  <text x="1130" y="212" fill="#E8E8E8" font-family="SF Pro Display, Segoe UI, sans-serif" font-size="18" font-weight="700">Knowledge Card</text>
  <text x="1130" y="242" fill="#BBBBBB" font-family="SF Mono, Menlo, monospace" font-size="14">title: NousResearch/hermes-agent</text>
  <text x="1130" y="266" fill="#BBBBBB" font-family="SF Mono, Menlo, monospace" font-size="14">type: knowledge-card</text>
  <text x="1130" y="290" fill="#BBBBBB" font-family="SF Mono, Menlo, monospace" font-size="14">branch: GitHub / AI Agent</text>
  <text x="1130" y="314" fill="#BBBBBB" font-family="SF Mono, Menlo, monospace" font-size="14">links: _index + MOC/GitHub</text>

  <rect x="1106" y="660" width="214" height="118" rx="18" fill="#202020" stroke="#343434" stroke-width="2"/>
  <text x="1130" y="692" fill="#E8E8E8" font-family="SF Pro Display, Segoe UI, sans-serif" font-size="18" font-weight="700">Pipeline</text>
  <text x="1130" y="722" fill="#BBBBBB" font-family="SF Mono, Menlo, monospace" font-size="14">GitHub: DeepWiki first</text>
  <text x="1130" y="746" fill="#BBBBBB" font-family="SF Mono, Menlo, monospace" font-size="14">Media: subtitles / whisper</text>
  <text x="1130" y="770" fill="#BBBBBB" font-family="SF Mono, Menlo, monospace" font-size="14">LLM: OpenAI / GLM / MiniMax</text>
</svg>
